<?xml version="1.0" encoding="UTF-8"?>
<!DOCTYPE svg PUBLIC "-//W3C//DTD SVG 1.1//EN" "http://www.w3.org/Graphics/SVG/1.1/DTD/svg11.dtd">
<!-- Creator: CorelDRAW -->
<svg xmlns="http://www.w3.org/2000/svg" xml:space="preserve" width="6.82666in" height="6.82666in" style="shape-rendering:geometricPrecision; text-rendering:geometricPrecision; image-rendering:optimizeQuality; fill-rule:evenodd; clip-rule:evenodd"
viewBox="0 0 6.82666 6.82666"
 xmlns:xlink="http://www.w3.org/1999/xlink">
 <defs>
  <style type="text/css">
   <![CDATA[
    .fil1 {fill:none}
    .fil0 {fill:#212121;fill-rule:nonzero}
   ]]>
  </style>
 </defs>
 <g id="Layer_x0020_1">
  <metadata id="CorelCorpID_0Corel-Layer"/>
  <path class="fil0" d="M1.2296 2.05302l4.36746 0c0.103575,0 0.197661,0.0423189 0.265799,0.110457 0.0681575,0.0681575 0.110469,0.162268 0.110469,0.265811l0 1.53672c0,0.103543 -0.0423268,0.197642 -0.11048,0.265787 -0.0681457,0.0681535 -0.162244,0.11048 -0.265787,0.11048l-0.0848819 0c0.00187795,-0.0173268 0.00285039,-0.0349252 0.00285039,-0.052752 0,-0.0562874 -0.00961417,-0.110331 -0.0272795,-0.160587l0.109311 0c0.0446496,0 0.0853622,-0.0183819 0.114953,-0.0479764 0.0295945,-0.0295906 0.0479764,-0.0703031 0.0479764,-0.114953l0 -1.53672c0,-0.0446654 -0.018374,-0.0853858 -0.0479646,-0.114976 -0.0295787,-0.0295787 -0.0702835,-0.0479528 -0.114965,-0.0479528l-4.36746 0c-0.0446929,0 -0.0854094,0.0183583 -0.114988,0.0479409 -0.0295827,0.0295787 -0.0479409,0.0702953 -0.0479409,0.114988l0 1.53672c0,0.0446811 0.018374,0.0853858 0.0479528,0.114965 0.0295906,0.0295906 0.070311,0.0479646 0.114976,0.0479646l0.109307 0c-0.0176654,0.0502559 -0.0272795,0.104299 -0.0272795,0.160587 0,0.0178268 0.000972441,0.0354252 0.00285039,0.052752l-0.084878 0c-0.103543,0 -0.197654,-0.042311 -0.265811,-0.110469 -0.0681378,-0.0681378 -0.110457,-0.162224 -0.110457,-0.265799l0 -1.53672c0,-0.103587 0.0422992,-0.197681 0.110445,-0.265823 0.0681417,-0.0681457 0.162236,-0.110445 0.265823,-0.110445zm1.02296 2.07592l2.32154 0c-0.0176693,0.0502559 -0.0272795,0.104299 -0.0272795,0.160587 0,0.0178268 0.000972441,0.0354252 0.00285039,0.052752l-2.27268 0c0.00187795,-0.0173268 0.00285039,-0.0349252 0.00285039,-0.052752 0,-0.0562874 -0.00961024,-0.110331 -0.0272795,-0.160587z"/>
  <polygon class="fil0" points="0.96,2.40348 5.86666,2.40348 5.86666,2.61682 0.96,2.61682 "/>
  <polygon class="fil0" points="0.96,3.15838 5.86666,3.15838 5.86666,3.37172 0.96,3.37172 "/>
  <polygon class="fil0" points="1.71994,2.51015 1.71994,3.26505 1.5066,3.26505 1.5066,2.51015 "/>
  <polygon class="fil0" points="2.36074,2.51015 2.36074,3.26505 2.1474,3.26505 2.1474,2.51015 "/>
  <polygon class="fil0" points="3.00154,2.51015 3.00154,3.26505 2.7882,3.26505 2.7882,2.51015 "/>
  <polygon class="fil0" points="3.64234,2.51015 3.64234,3.26505 3.429,3.26505 3.429,2.51015 "/>
  <polygon class="fil0" points="4.28315,2.51015 4.28315,3.26505 4.06981,3.26505 4.06981,2.51015 "/>
  <polygon class="fil0" points="4.92395,2.51015 4.92395,3.26505 4.71061,3.26505 4.71061,2.51015 "/>
  <path class="fil0" d="M5.03093 3.80543c0.133669,0 0.254697,0.0541929 0.342307,0.141799 0.0876102,0.0876102 0.141799,0.208642 0.141799,0.342307 0,0.133669 -0.054189,0.254697 -0.141799,0.342307 -0.0876102,0.0876102 -0.208638,0.141799 -0.342307,0.141799 -0.133669,0 -0.254697,-0.054189 -0.342307,-0.141799 -0.0876102,-0.0876102 -0.141799,-0.208638 -0.141799,-0.342307 0,-0.133661 0.0541929,-0.254697 0.141799,-0.342307 0.0876102,-0.0876063 0.208646,-0.141799 0.342307,-0.141799zm0.191472 0.292634c-0.0489921,-0.0489882 -0.116693,-0.0792953 -0.191472,-0.0792953 -0.0747795,0 -0.14248,0.0303071 -0.191472,0.0792953 -0.0489882,0.0489921 -0.0792953,0.116693 -0.0792953,0.191472 0,0.0747835 0.0303031,0.14248 0.0792953,0.191472 0.0489921,0.0489921 0.116689,0.0792953 0.191472,0.0792953 0.0747835,0 0.14248,-0.0303031 0.191472,-0.0792953 0.0489921,-0.0489921 0.0792953,-0.116689 0.0792953,-0.191472 0,-0.0747795 -0.0303031,-0.14248 -0.0792953,-0.191472z"/>
  <path class="fil0" d="M1.79573 3.80543c0.133661,0 0.254697,0.0541929 0.342307,0.141799 0.0876063,0.0876102 0.141799,0.208646 0.141799,0.342307 0,0.133669 -0.054189,0.254697 -0.141799,0.342307 -0.0876102,0.0876102 -0.208638,0.141799 -0.342307,0.141799 -0.133669,0 -0.254697,-0.054189 -0.342307,-0.141799 -0.0876102,-0.0876102 -0.141799,-0.208638 -0.141799,-0.342307 0,-0.133665 0.054189,-0.254697 0.141799,-0.342307 0.0876102,-0.0876063 0.208638,-0.141799 0.342307,-0.141799zm0.191472 0.292634c-0.0489921,-0.0489882 -0.116693,-0.0792953 -0.191472,-0.0792953 -0.0747795,0 -0.14248,0.0303071 -0.191472,0.0792953 -0.0489921,0.0489921 -0.0792953,0.116693 -0.0792953,0.191472 0,0.0747835 0.0303031,0.14248 0.0792953,0.191472 0.0489921,0.0489921 0.116689,0.0792953 0.191472,0.0792953 0.0747835,0 0.14248,-0.0303031 0.191472,-0.0792953 0.0489921,-0.0489921 0.0792953,-0.116689 0.0792953,-0.191472 0,-0.0747795 -0.0303071,-0.14248 -0.0792953,-0.191472z"/>
  <path class="fil0" d="M5.47776 3.58975c-0.0589094,0 -0.106669,0.0477598 -0.106669,0.106669 0,0.0589094 0.0477598,0.106669 0.106669,0.106669l0.388902 0c0.0589094,0 0.106669,-0.0477598 0.106669,-0.106669 0,-0.0589094 -0.0477598,-0.106669 -0.106669,-0.106669l-0.388902 0z"/>
 </g>
 <rect class="fil1" width="6.82666" height="6.82666"/>
</svg>
